<svg width="76" height="38" xmlns="http://www.w3.org/2000/svg" data-name="Layer 1">

 <title>Icons_logos</title>
 <g>
  <title>Layer 1</title>
  <path id="svg_1" fill="#014d71" d="m19.66107,37.0895c-4,0.3 -8.62,0.22 -12.2,-1.77a14.28,14.28 0 0 1 -6.46,-7.24a18.43,18.43 0 0 1 -1,-6.19c0,-8.16 3.63,-14.46 9.07,-18.09a22.65,22.65 0 0 1 13.18,-3.79a18.55,18.55 0 0 1 7.9,1.49l-2.15,6.26a15.68,15.68 0 0 0 -6.51,-1.17a12.84,12.84 0 0 0 -8.22,2.78a14.92,14.92 0 0 0 -5,11.63c0,5.76 3.25,9.6 9.55,9.6a36.43,36.43 0 0 0 5,-0.27l-3.24,6.76" class="cls-1"/>
  <path id="svg_2" fill="#014d71" d="m43.31107,21.0895l-0.61,-6.84c-0.16,-2 -0.32,-4.85 -0.48,-7l-0.16,0c-0.91,2.19 -1.92,5 -2.88,7l-3.08,6.77l-3,7.53l-3.9,8.65l-8.3,0l17.55,-36l9.87,0l4.16,36l-8.02,0l-0.69,-8.58l-0.46,-7.52" class="cls-1"/>
  <path id="svg_3" fill="#014d71" d="m52.66107,30.1195a24.33,24.33 0 0 0 8.15,1.17c2.93,0 4.7,-1.51 4.7,-4.29c0,-2.08 -1.55,-3.36 -4.86,-5.12c-3.79,-2 -7.42,-4.91 -7.42,-9.55c0,-7.26 6.3,-11.69 14.14,-11.69a17.68,17.68 0 0 1 8.43,1.76l-2.4,6.4a14.15,14.15 0 0 0 -6.67,-1.55c-3.57,0 -5.44,1.76 -5.44,3.73c0,2.13 2.19,3.41 5.23,5.12c4.38,2.29 7.1,5.23 7.1,9.55c0,8 -6.63,12.54 -14.57,12.11a51.65,51.65 0 0 1 -5.58,-0.59l-0.82,-7.07" class="cls-1"/>
  <path id="svg_4" fill="#74c163" d="m28.61107,28.6295a9.33,9.33 0 0 1 3,-0.07a8.79,8.79 0 0 1 3.8,1.4l0,0a13.76,13.76 0 0 1 11.31,-5.63a13.92,13.92 0 0 1 10.84,5l0.23,-0.17c-2.89,-3.9 -8.43,-6.53 -14.78,-6.53c-6.06,0 -11.37,2.4 -14.36,6l0,0" class="cls-2"/>
 </g>
</svg>